<svg xmlns="http://www.w3.org/2000/svg" width="24" height="24" viewBox="0 0 24 24" fill="none">
  <g clip-path="url(#clip0_43_1303)">
    <path d="M24 11.3566C24 8.25385 22.7918 5.33686 20.5979 3.14299C20.4608 3.00594 20.2385 3.00594 20.1014 3.14299L7.84872 15.3957C6.93763 14.9146 6.10498 15.0541 5.14985 15.2213C4.71637 13.6573 3.62948 13.0516 3.57218 13.0207C3.40148 12.9288 3.1886 12.9927 3.09668 13.1634C3.00475 13.3341 3.06859 13.547 3.23934 13.6389C3.2495 13.6443 3.98628 14.0557 4.38091 15.127C3.24608 14.8454 2.03683 15.2346 1.22755 16.0638C0.115844 12.0097 1.45264 5.92747 6.62866 5.93468C8.93126 5.93468 10.9641 7.45004 11.7234 9.60179C11.7878 9.78461 11.9884 9.88066 12.1711 9.81616C12.354 9.75171 12.4499 9.55124 12.3855 9.36841C11.941 8.10622 11.1304 7.01624 10.0165 6.26672C10.1163 5.7459 10.3293 5.24872 10.6392 4.81754L11.102 4.17353C11.5465 3.55493 10.8597 2.69566 10.1524 3.01806L9.0501 3.52123C9.02595 2.57888 9.26546 1.85478 9.83678 1.10498C10.0105 0.863226 10.0002 0.546251 9.81123 0.31629C9.62222 0.0862358 9.3132 0.0149025 9.04238 0.138332C8.06071 0.586411 7.11385 0.984221 6.58751 2.00638C6.06515 0.991944 5.10927 0.584071 4.13265 0.138332C3.86187 0.0146685 3.55281 0.0862826 3.36385 0.316244C3.17484 0.546251 3.16455 0.863179 3.33825 1.10498C3.90671 1.85548 4.15128 2.5771 4.12497 3.52123L3.02253 3.01806C2.32966 2.70188 1.61946 3.54225 2.07302 4.17353L2.53584 4.81754C2.84996 5.25462 3.06433 5.75915 3.16235 6.28764C-0.0556561 8.47656 -0.403429 13.3482 0.700131 16.7489C-0.184093 18.2106 -0.224347 20.422 0.542907 21.9352C0.630623 22.1081 0.841861 22.1772 1.01476 22.0896C1.18767 22.0019 1.2568 21.7906 1.16913 21.6177C0.321044 19.9447 0.57483 17.1063 2.32699 16.0865C3.09391 15.6402 3.7662 15.7424 4.57586 15.9044C4.60656 16.1137 4.62458 16.3388 4.62458 16.5826C4.62458 16.7765 4.78171 16.9337 4.97563 16.9337C5.16955 16.9337 5.32668 16.7765 5.32668 16.5826C5.32668 16.3445 5.31222 16.1205 5.28624 15.9098C6.11346 15.7577 6.81003 15.6079 7.59985 16.0589C9.82185 17.3278 9.82583 21.6451 7.59175 22.8914C6.97746 23.2341 6.19153 23.3265 5.52533 23.0796C5.14596 22.9578 4.74492 22.9578 4.36556 23.0796C3.62297 23.3184 2.84682 23.2074 2.18034 22.7673C2.01858 22.6604 1.80079 22.7049 1.69398 22.8667C1.58712 23.0285 1.63163 23.2462 1.79344 23.3531C2.6288 23.9049 3.64464 24.0488 4.5804 23.7481C4.81916 23.6712 5.07163 23.6712 5.31049 23.7481C6.17819 24.0419 7.13347 23.9511 7.93381 23.5046C8.20801 23.3516 8.46006 23.1607 8.68506 22.9388C9.50057 23.5743 10.5033 23.9217 11.5455 23.9217C12.7255 23.9217 13.8041 23.4805 14.6258 22.7547C16.8933 22.311 18.9565 21.2116 20.5979 19.5703C22.7918 17.3763 24 14.4594 24 11.3566ZM3.10599 4.4078L2.64317 3.76379C2.61756 3.68304 2.64686 3.64738 2.73102 3.65683C3.2561 3.89648 3.80098 4.11296 4.30976 4.38636C4.41859 4.44491 4.55012 4.44192 4.65609 4.3785C4.76215 4.31512 4.82702 4.20068 4.82702 4.07716C4.82702 2.87263 4.79426 1.87991 4.02869 0.862711C5.16904 1.38325 6.23642 2.00915 6.23642 3.45163C6.23642 3.64555 6.39355 3.80268 6.58747 3.80268C6.78139 3.80268 6.93852 3.64555 6.93852 3.45163C6.93852 2.01663 8.00604 1.38325 9.1462 0.862758C8.38072 1.87996 8.34796 2.87263 8.34796 4.07716C8.34796 4.20072 8.41293 4.31512 8.51894 4.3785C8.62501 4.44183 8.75649 4.44482 8.86531 4.38627C9.37401 4.11268 9.91869 3.89648 10.4439 3.65679C10.528 3.64733 10.5573 3.683 10.5318 3.76374L10.069 4.4078C9.74818 4.85433 9.51466 5.36031 9.38089 5.89246C8.53172 5.4595 7.59451 5.23258 6.6287 5.23258C5.64717 5.22471 4.67046 5.45921 3.79831 5.90921C3.66524 5.37089 3.43036 4.85915 3.10599 4.4078ZM9.13524 22.3997C10.2889 20.7285 10.2356 17.8821 8.9358 16.2912C9.65747 15.655 10.5721 15.3072 11.5456 15.3072C13.7269 15.3072 15.5017 17.082 15.5017 19.2634C15.5017 21.4448 13.727 23.2195 11.5456 23.2195C10.6685 23.2195 9.82433 22.93 9.13524 22.3997ZM15.4239 21.8405C15.7085 21.4138 15.9247 20.9377 16.0564 20.4279C17.2737 19.9362 18.3654 19.213 19.3031 18.2753C20.6742 16.9041 21.5993 15.1785 21.9781 13.2849C22.0161 13.0948 21.8929 12.9098 21.7027 12.8718C21.5125 12.8336 21.3277 12.957 21.2896 13.1472C20.938 14.9044 20.0795 16.506 18.8066 17.7789C18.0395 18.5459 17.1616 19.158 16.1912 19.605C16.3848 16.9461 14.213 14.6051 11.5456 14.6051C10.408 14.6051 9.33815 15.0076 8.49147 15.7459L19.0502 5.18717C20.6367 6.89782 21.4923 9.11097 21.4663 11.4579C21.4641 11.6517 21.6196 11.8106 21.8134 11.8128C22.007 11.8147 22.1662 11.6595 22.1684 11.4656C22.1964 8.92829 21.2675 6.53647 19.5464 4.69088L20.3458 3.89152C22.2523 5.92152 23.2979 8.55861 23.2979 11.3566C23.2979 14.2718 22.1627 17.0124 20.1014 19.0737C18.7876 20.3875 17.1863 21.3319 15.4239 21.8405Z" fill="black"/>
    <path d="M16.8044 15.2803C16.6672 15.1432 16.445 15.1432 16.3079 15.2803C16.1708 15.4174 16.1708 15.6397 16.3079 15.7768L16.838 16.3069C16.9066 16.3754 16.9965 16.4097 17.0863 16.4097C17.1761 16.4097 17.266 16.3754 17.3346 16.3069C17.4717 16.1697 17.4717 15.9475 17.3346 15.8104L16.8044 15.2803Z" fill="black"/>
    <path d="M18.7008 13.5696L18.0174 13.2651C17.8403 13.1861 17.6328 13.2659 17.5539 13.4429C17.475 13.62 17.5546 13.8276 17.7317 13.9064L18.415 14.2109C18.4615 14.2316 18.5099 14.2414 18.5577 14.2414C18.6921 14.2414 18.8203 14.1638 18.8785 14.0331C18.9574 13.856 18.8778 13.6485 18.7008 13.5696Z" fill="black"/>
    <path d="M19.1508 10.9713L18.4077 10.9341C18.4017 10.9337 18.3957 10.9336 18.3898 10.9336C18.204 10.9336 18.0489 11.0794 18.0395 11.267C18.0298 11.4607 18.1789 11.6255 18.3725 11.6352L19.1156 11.6725C19.1216 11.6728 19.1276 11.673 19.1335 11.673C19.3193 11.673 19.4744 11.5271 19.4838 11.3395C19.4935 11.1459 19.3444 10.981 19.1508 10.9713Z" fill="black"/>
    <path d="M18.0298 9.29093C18.0668 9.29093 18.1045 9.28503 18.1414 9.27263L18.8427 9.03752C19.0266 8.97587 19.1256 8.7769 19.064 8.59309C19.0024 8.40923 18.8033 8.31024 18.6196 8.37179L17.9183 8.6069C17.7344 8.66854 17.6354 8.86752 17.697 9.05133C17.7462 9.19816 17.883 9.29093 18.0298 9.29093Z" fill="black"/>
    <path d="M6.58745 10.2231C6.67727 10.2231 6.76714 10.1888 6.83566 10.1203L7.60914 9.34684C7.74629 9.20974 7.74629 8.98745 7.60919 8.8504C7.47209 8.71335 7.24981 8.71326 7.11276 8.85036L6.58745 9.37562L6.06214 8.85036C5.92509 8.71331 5.7028 8.71326 5.56571 8.8504C5.42861 8.9875 5.42861 9.20979 5.56575 9.34684L6.33923 10.1203C6.40776 10.1887 6.49763 10.2231 6.58745 10.2231Z" fill="black"/>
    <path d="M9.75346 10.2231C9.84329 10.2231 9.93316 10.1888 10.0017 10.1203L10.7752 9.34684C10.9123 9.20974 10.9123 8.98745 10.7752 8.8504C10.6381 8.71331 10.4158 8.71326 10.2788 8.85036L9.75346 9.37562L9.22815 8.85036C9.0911 8.71331 8.86882 8.71326 8.73172 8.8504C8.59463 8.9875 8.59463 9.20979 8.73177 9.34684L9.50525 10.1203C9.57377 10.1887 9.66364 10.2231 9.75346 10.2231Z" fill="black"/>
    <path d="M5.51403 11.0672L4.98877 11.5925L4.46355 11.0672C4.32641 10.9301 4.10412 10.9301 3.96712 11.0672C3.82998 11.2043 3.82998 11.4265 3.96707 11.5636L4.74051 12.3371C4.80636 12.4029 4.89562 12.4399 4.98877 12.4399C5.08191 12.4399 5.17113 12.4029 5.23703 12.3371L6.01051 11.5636C6.14761 11.4265 6.14761 11.2043 6.01051 11.0672C5.87341 10.9301 5.65118 10.9301 5.51403 11.0672Z" fill="black"/>
    <path d="M7.90652 12.3373C7.97238 12.4032 8.06164 12.4401 8.15478 12.4401C8.24793 12.4401 8.33714 12.4032 8.40305 12.3374L9.17653 11.5639C9.31362 11.4267 9.31362 11.2045 9.17653 11.0674C9.03938 10.9303 8.81715 10.9303 8.68005 11.0674L8.15478 11.5927L7.62957 11.0674C7.49247 10.9303 7.27019 10.9303 7.13314 11.0674C6.99599 11.2045 6.99599 11.4268 7.13309 11.5638L7.90652 12.3373Z" fill="black"/>
    <path d="M12.3315 17.145C12.5254 17.145 12.6826 16.9878 12.6826 16.7939C12.6826 16.6 12.5254 16.4429 12.3315 16.4429C12.1376 16.4429 11.9805 16.6 11.9805 16.7939C11.9805 16.9878 12.1376 17.145 12.3315 17.145Z" fill="black"/>
  </g>
  <defs>
    <clipPath id="clip0_43_1303">
      <rect width="24" height="24" fill="white"/>
    </clipPath>
  </defs>
</svg>