<svg xmlns="http://www.w3.org/2000/svg" width="24" height="24" viewBox="0 0 24 24" fill="none">
  <path d="M6.21582 11.8679C6.21639 12.2891 6.3837 12.6928 6.68116 12.991C6.97862 13.2891 7.38203 13.4573 7.80318 13.4589C7.69178 13.6411 7.63197 13.8503 7.63014 14.0639V14.2799C7.62947 14.5467 7.7202 14.8057 7.88723 15.0137C8.05426 15.2217 8.28751 15.3663 8.54814 15.4233L10.3438 20.9205C10.4111 21.124 10.5411 21.301 10.7152 21.426C10.8893 21.551 11.0986 21.6177 11.3129 21.6165H12.6848C12.8991 21.6177 13.1084 21.551 13.2825 21.426C13.4566 21.301 13.5866 21.124 13.6539 20.9205L15.4508 15.4223C15.7114 15.3655 15.9448 15.2212 16.112 15.0134C16.2792 14.8055 16.3701 14.5467 16.3697 14.2799V14.0639C16.3681 13.8501 16.3078 13.6408 16.1955 13.4589C16.6168 13.4577 17.0205 13.2896 17.3182 12.9914C17.6159 12.6932 17.7833 12.2892 17.7838 11.8679V11.7743C17.7834 11.5083 17.7034 11.2484 17.5542 11.0282C17.4049 10.808 17.1932 10.6375 16.9462 10.5385C17.1514 10.2232 17.2727 9.86074 17.2986 9.48544C17.3245 9.11013 17.2542 8.73443 17.0943 8.3939C16.873 7.92206 16.491 7.5444 16.0167 7.32854C16.076 7.0536 16.1059 6.77315 16.106 6.4919C16.106 5.40281 15.6733 4.35833 14.9032 3.58823C14.1331 2.81814 13.0887 2.3855 11.9996 2.3855C10.9105 2.3855 9.86602 2.81814 9.09592 3.58823C8.32582 4.35833 7.89318 5.40281 7.89318 6.4919C7.89322 6.77348 7.92323 7.05426 7.9827 7.3295C7.69446 7.46192 7.43811 7.65483 7.23106 7.89514C7.02401 8.13544 6.87112 8.41751 6.78277 8.72216C6.69443 9.0268 6.6727 9.3469 6.71907 9.66069C6.76544 9.97449 6.87882 10.2746 7.0515 10.5407C6.80528 10.6398 6.59423 10.8102 6.44536 11.0299C6.2965 11.2497 6.21657 11.5089 6.21582 11.7743V11.8679ZM13.1072 20.7419C13.0784 20.8304 13.0218 20.9073 12.9459 20.9613C12.8701 21.0152 12.7788 21.0433 12.6857 21.0414H11.3139C11.221 21.0424 11.1301 21.014 11.0544 20.9601C10.9787 20.9062 10.922 20.8298 10.8925 20.7417L9.1659 15.4593H14.8337L13.1072 20.7419ZM15.7937 14.2799C15.7947 14.4344 15.7355 14.5831 15.6287 14.6947C15.5219 14.8063 15.3759 14.8721 15.2216 14.878C15.218 14.878 15.2144 14.8792 15.2108 14.8794H15.2053C15.1948 14.8801 15.1844 14.8814 15.1741 14.8833H8.82558C8.81534 14.8815 8.805 14.8804 8.79462 14.8799H8.78886C8.78526 14.8799 8.78166 14.8799 8.77806 14.8785C8.62363 14.8725 8.47756 14.8068 8.37077 14.695C8.26398 14.5833 8.20485 14.4344 8.2059 14.2799V14.0639C8.20559 13.9814 8.22231 13.8997 8.25502 13.8239C8.28772 13.7481 8.33571 13.6799 8.39598 13.6235C8.50844 13.5187 8.65629 13.4603 8.80998 13.4598H15.1897C15.2656 13.4592 15.341 13.4735 15.4114 13.5021C15.4818 13.5307 15.5458 13.5729 15.5998 13.6264C15.661 13.6816 15.7099 13.7491 15.7433 13.8245C15.7766 13.8999 15.7936 13.9815 15.7933 14.0639L15.7937 14.2799ZM12.0022 2.9591C12.9382 2.96081 13.8353 3.33372 14.4967 3.99602C15.1581 4.65831 15.5298 5.55591 15.5302 6.4919C15.5302 6.71412 15.5085 6.93581 15.4654 7.15382C15.4532 7.15166 15.4397 7.15094 15.4273 7.14926C15.4112 7.14686 15.3944 7.14542 15.3778 7.1435C15.2823 7.1317 15.1861 7.12561 15.0898 7.12526C15.0488 7.12452 15.0077 7.12741 14.9672 7.1339C14.5606 7.14939 14.1673 7.28336 13.8358 7.51934C13.5929 7.68123 13.3857 7.89114 13.2269 8.13614C12.8628 7.89476 12.4355 7.76604 11.9986 7.76604C11.5617 7.76604 11.1345 7.89476 10.7703 8.13614C10.5663 7.8291 10.2904 7.57652 9.96658 7.40035C9.64277 7.22418 9.28083 7.12975 8.91222 7.12526C8.81739 7.12564 8.72267 7.13157 8.62854 7.14302C8.61078 7.14518 8.59254 7.14686 8.57526 7.1495C8.55798 7.15214 8.54694 7.15214 8.53326 7.15454C8.48998 6.93631 8.4682 6.71437 8.46822 6.4919C8.4693 5.55507 8.84202 4.65693 9.50457 3.9946C10.1671 3.33227 11.0654 2.95986 12.0022 2.9591ZM8.41038 7.77902C8.42022 7.7759 8.4291 7.77038 8.4387 7.7663L8.3571 7.49582L8.4699 7.75214L8.4723 7.75742C8.70458 7.69547 8.94759 7.685 9.18434 7.72674C9.42108 7.76849 9.64586 7.86144 9.84294 7.9991C10.0971 8.16775 10.2963 8.40722 10.4158 8.6879C10.4341 8.7304 10.4624 8.76786 10.4982 8.79713C10.5341 8.82639 10.5764 8.84658 10.6217 8.856C10.667 8.86542 10.7139 8.86378 10.7585 8.85123C10.803 8.83868 10.8439 8.81558 10.8776 8.7839C11.1824 8.49935 11.5838 8.34109 12.0008 8.34109C12.4178 8.34109 12.8192 8.49935 13.124 8.7839C13.1478 8.80556 13.1751 8.82294 13.2049 8.83526C13.2118 8.83838 13.2188 8.8415 13.226 8.84414C13.2552 8.85465 13.2859 8.86048 13.3169 8.86142H13.3208C13.3771 8.86125 13.4321 8.84458 13.479 8.81349C13.5259 8.78239 13.5627 8.73823 13.5848 8.68646C13.7056 8.40253 13.9074 8.16047 14.1649 7.99046C14.4131 7.81314 14.7088 7.7141 15.0137 7.70606C15.032 7.70551 15.0501 7.70326 15.068 7.69934H15.092C15.2378 7.69697 15.3833 7.7154 15.524 7.75406L15.5518 7.76174C15.5643 7.7677 15.5771 7.77283 15.5902 7.7771C15.8048 7.84422 16.0031 7.95521 16.1725 8.10304C16.3419 8.25087 16.4787 8.4323 16.5742 8.63582C16.6763 8.85365 16.7292 9.09126 16.7293 9.33182C16.7312 9.67091 16.6268 10.0021 16.4307 10.2788C16.2347 10.5554 15.9569 10.7637 15.6363 10.8743C15.4638 10.9447 15.2787 10.9792 15.0925 10.9758C14.6953 10.9768 14.3118 10.831 14.0156 10.5664C13.9978 10.549 13.9788 10.5329 13.9587 10.5184C13.8954 10.4723 13.8166 10.4528 13.7391 10.4639C13.6936 10.4706 13.6502 10.4874 13.6121 10.5132C13.574 10.5389 13.5422 10.573 13.519 10.6127C13.5133 10.6223 13.5073 10.6333 13.5015 10.6417C13.4883 10.6582 13.4769 10.676 13.4677 10.695C13.3568 10.9241 13.1935 11.1238 12.9912 11.278C12.7888 11.4323 12.5529 11.5368 12.3027 11.583C12.2936 11.5845 12.2847 11.5865 12.2758 11.589C12.1866 11.6092 12.095 11.6173 12.0037 11.613C11.6954 11.614 11.3931 11.5277 11.1318 11.364C10.8705 11.2003 10.661 10.9659 10.5274 10.6881C10.5194 10.6712 10.5097 10.6551 10.4986 10.6401L10.4965 10.6355C10.4885 10.6199 10.4804 10.6043 10.4725 10.5901C10.451 10.5545 10.4221 10.5239 10.3876 10.5005C10.3532 10.4771 10.3141 10.4614 10.2731 10.4546C10.232 10.4477 10.1899 10.4499 10.1498 10.4608C10.1096 10.4718 10.0723 10.4914 10.0405 10.5181C10.0217 10.532 10.004 10.5473 9.98766 10.564C9.69418 10.8318 9.31071 10.9794 8.91342 10.9775C8.52235 10.9786 8.14379 10.8397 7.84616 10.586C7.54854 10.3324 7.35148 9.98057 7.29061 9.59426C7.22974 9.20796 7.30907 8.81262 7.51426 8.4797C7.71945 8.14678 8.03697 7.89825 8.40942 7.77902H8.41038ZM6.79182 11.7743C6.79114 11.5869 6.86064 11.406 6.98666 11.2672C7.11267 11.1284 7.28606 11.0419 7.4727 11.0245C7.4847 11.0346 7.4967 11.0435 7.5099 11.0536C7.53246 11.0718 7.55526 11.0896 7.57854 11.1071C7.61054 11.1308 7.64254 11.1537 7.67454 11.176C7.69854 11.1921 7.72254 11.2077 7.74654 11.224C7.7799 11.2446 7.81398 11.2641 7.8483 11.2828C7.8723 11.2967 7.8987 11.3104 7.92462 11.3231C7.95966 11.3406 7.99662 11.3565 8.03166 11.3711C8.05806 11.3824 8.08398 11.3939 8.11062 11.4042C8.14782 11.4186 8.1855 11.4309 8.22342 11.4433C8.25006 11.452 8.27646 11.4611 8.30358 11.4688C8.34318 11.4801 8.38374 11.4889 8.42358 11.4981C8.4495 11.5038 8.47518 11.5105 8.50158 11.5153C8.54646 11.5237 8.59182 11.5293 8.63742 11.535C8.65998 11.5377 8.68206 11.5417 8.70486 11.5439C8.77326 11.5501 8.84214 11.5537 8.91174 11.5537C9.34902 11.5541 9.77627 11.4228 10.1379 11.1769C10.3379 11.4896 10.6137 11.7466 10.9396 11.924C11.2656 12.1015 11.6311 12.1936 12.0022 12.1919C12.1417 12.1959 12.281 12.1815 12.4167 12.1489C12.7103 12.093 12.9895 11.9778 13.2371 11.8104C13.4847 11.6429 13.6955 11.4267 13.8567 11.175C14.2207 11.4224 14.6507 11.5544 15.0908 11.5537C15.3486 11.5579 15.6046 11.5099 15.8434 11.4126C15.9109 11.3886 15.9764 11.3615 16.0407 11.3315C16.0623 11.3217 16.0827 11.3099 16.1041 11.2991C16.1463 11.2777 16.1883 11.2557 16.2293 11.2314C16.2533 11.2173 16.2757 11.2021 16.2985 11.1873C16.3359 11.1633 16.3726 11.1393 16.4084 11.1117C16.4309 11.0951 16.453 11.0778 16.4749 11.0601C16.4912 11.0471 16.5085 11.0361 16.5245 11.0219C16.7115 11.0401 16.885 11.1272 17.0113 11.2663C17.1376 11.4054 17.2076 11.5864 17.2078 11.7743V11.8679C17.2075 12.137 17.1004 12.3951 16.9101 12.5854C16.7198 12.7757 16.4618 12.8828 16.1926 12.8831H7.80702C7.53787 12.8828 7.27983 12.7757 7.08952 12.5854C6.8992 12.3951 6.79214 12.137 6.79182 11.8679V11.7743Z" fill="black"/>
  <path d="M8.47065 7.75195C8.46081 7.75771 8.44977 7.76131 8.43945 7.76611C8.45037 7.76263 8.46084 7.75788 8.47065 7.75195Z" fill="black"/>
</svg>