<svg xmlns="http://www.w3.org/2000/svg" width="24" height="24" viewBox="0 0 24 24" fill="none">
  <path d="M7.25612 9.79884H6.50304C6.41702 9.79884 6.33453 9.76467 6.2737 9.70385C6.21288 9.64303 6.17871 9.56054 6.17871 9.47452C6.17871 9.3885 6.21288 9.30601 6.2737 9.24519C6.33453 9.18436 6.41702 9.15019 6.50304 9.15019H7.25612C7.54252 9.14911 7.82391 9.07493 8.07364 8.93469C8.32336 8.79445 8.53315 8.59278 8.68314 8.34879L9.54585 6.94057C10.6894 5.06792 11.1772 3.44111 11.1772 1.50165C11.1771 1.27563 11.2668 1.05882 11.4265 0.898875C11.5862 0.73893 11.8028 0.64894 12.0289 0.648682H12.2436C13.1267 0.649712 13.9734 1.00101 14.5978 1.62551C15.2222 2.25 15.5734 3.09669 15.5744 3.97982C15.5742 5.63768 15.2055 7.27477 14.495 8.77268L14.2972 9.22479C14.2611 9.30096 14.1968 9.36009 14.1178 9.38965C14.0389 9.41921 13.9516 9.41688 13.8743 9.38315C13.7971 9.34942 13.736 9.28694 13.704 9.20894C13.672 9.13095 13.6717 9.04358 13.703 8.96533L13.9009 8.51322C14.5782 7.09821 14.9285 5.54892 14.9257 3.98014C14.9251 3.26891 14.6424 2.58698 14.1395 2.084C13.6367 1.58102 12.9548 1.2981 12.2436 1.29733H12.0289C11.9751 1.29742 11.9236 1.31879 11.8855 1.35678C11.8475 1.39476 11.826 1.44627 11.8258 1.50003C11.8258 3.54003 11.2933 5.32155 10.0995 7.2769L9.23839 8.68674C9.03005 9.02559 8.73861 9.30562 8.39169 9.50025C8.04478 9.69487 7.6539 9.79766 7.25612 9.79884Z" fill="black"/>
  <path d="M16.9096 12.6622C16.8236 12.6622 16.7411 12.628 16.6803 12.5672C16.6195 12.5063 16.5853 12.4238 16.5853 12.3378C16.5853 12.2518 16.6195 12.1693 16.6803 12.1085C16.7411 12.0477 16.8236 12.0135 16.9096 12.0135H20.0951C20.4392 12.0135 20.7692 11.8768 21.0125 11.6335C21.2558 11.3902 21.3924 11.0603 21.3924 10.7162C21.3924 10.3721 21.2558 10.0422 21.0125 9.79888C20.7692 9.55559 20.4392 9.41891 20.0951 9.41891H14.0001C13.9141 9.41891 13.8316 9.38474 13.7708 9.32392C13.71 9.2631 13.6758 9.1806 13.6758 9.09459C13.6758 9.00857 13.71 8.92608 13.7708 8.86526C13.8316 8.80443 13.9141 8.77026 14.0001 8.77026H20.0938C20.6099 8.77026 21.1049 8.97528 21.4698 9.34022C21.8348 9.70515 22.0398 10.2001 22.0398 10.7162C22.0398 11.2323 21.8348 11.7273 21.4698 12.0922C21.1049 12.4571 20.6099 12.6622 20.0938 12.6622H16.9083H16.9096Z" fill="black"/>
  <path d="M20.7424 15.9058H16.1837C16.0977 15.9058 16.0152 15.8716 15.9544 15.8108C15.8935 15.75 15.8594 15.6675 15.8594 15.5815C15.8594 15.4955 15.8935 15.413 15.9544 15.3522C16.0152 15.2913 16.0977 15.2572 16.1837 15.2572H20.7424C21.0865 15.2572 21.4164 15.1205 21.6597 14.8772C21.903 14.6339 22.0397 14.3039 22.0397 13.9599C22.0397 13.6158 21.903 13.2858 21.6597 13.0425C21.4164 12.7992 21.0865 12.6626 20.7424 12.6626H16.9095C16.8235 12.6626 16.741 12.6284 16.6802 12.5676C16.6194 12.5067 16.5852 12.4243 16.5852 12.3382C16.5852 12.2522 16.6194 12.1697 16.6802 12.1089C16.741 12.0481 16.8235 12.0139 16.9095 12.0139H20.7424C21.2585 12.0139 21.7535 12.2189 22.1184 12.5839C22.4833 12.9488 22.6883 13.4438 22.6883 13.9599C22.6883 14.476 22.4833 14.9709 22.1184 15.3359C21.7535 15.7008 21.2585 15.9058 20.7424 15.9058Z" fill="black"/>
  <path d="M20.094 19.1495H15.4562C15.3701 19.1495 15.2877 19.1153 15.2268 19.0545C15.166 18.9936 15.1318 18.9112 15.1318 18.8251C15.1318 18.7391 15.166 18.6566 15.2268 18.5958C15.2877 18.535 15.3701 18.5008 15.4562 18.5008H20.094C20.4381 18.5008 20.768 18.3641 21.0113 18.1208C21.2546 17.8776 21.3913 17.5476 21.3913 17.2035C21.3913 16.8594 21.2546 16.5295 21.0113 16.2862C20.768 16.0429 20.4381 15.9062 20.094 15.9062H16.1839C16.0979 15.9062 16.0154 15.872 15.9546 15.8112C15.8938 15.7504 15.8596 15.6679 15.8596 15.5819C15.8596 15.4959 15.8938 15.4134 15.9546 15.3526C16.0154 15.2917 16.0979 15.2576 16.1839 15.2576H20.094C20.6101 15.2576 21.1051 15.4626 21.47 15.8275C21.8349 16.1925 22.0399 16.6874 22.0399 17.2035C22.0399 17.7196 21.8349 18.2146 21.47 18.5795C21.1051 18.9444 20.6101 19.1495 20.094 19.1495Z" fill="black"/>
  <path d="M18.7966 22.3926H9.74111C8.51338 22.3948 7.31569 22.0131 6.31559 21.301C6.27946 21.2769 6.24852 21.2459 6.2246 21.2097C6.20068 21.1734 6.18427 21.1328 6.17635 21.0901C6.16843 21.0475 6.16915 21.0036 6.17847 20.9612C6.18779 20.9189 6.20553 20.8788 6.23062 20.8434C6.25572 20.808 6.28766 20.778 6.32457 20.7551C6.36147 20.7323 6.40258 20.7171 6.44547 20.7104C6.48836 20.7038 6.53214 20.7058 6.57423 20.7164C6.61632 20.7269 6.65586 20.7458 6.69051 20.772C7.58109 21.4064 8.64768 21.7466 9.74111 21.745H18.7966C19.1406 21.745 19.4706 21.6083 19.7139 21.365C19.9572 21.1217 20.0939 20.7917 20.0939 20.4477C20.0939 20.1036 19.9572 19.7736 19.7139 19.5303C19.4706 19.287 19.1406 19.1504 18.7966 19.1504H15.456C15.37 19.1504 15.2875 19.1162 15.2267 19.0554C15.1659 18.9945 15.1317 18.912 15.1317 18.826C15.1317 18.74 15.1659 18.6575 15.2267 18.5967C15.2875 18.5359 15.37 18.5017 15.456 18.5017H18.7966C19.3127 18.5017 19.8076 18.7067 20.1726 19.0717C20.5375 19.4366 20.7425 19.9316 20.7425 20.4477C20.7425 20.9638 20.5375 21.4587 20.1726 21.8236C19.8076 22.1886 19.3127 22.3936 18.7966 22.3936V22.3926Z" fill="black"/>
  <path d="M5.63606 23.3513H2.36331C2.08446 23.3509 1.81714 23.24 1.61996 23.0429C1.42279 22.8457 1.31187 22.5784 1.31152 22.2995V8.44469C1.3123 8.16613 1.42341 7.89922 1.62053 7.7024C1.81766 7.50557 2.08474 7.39487 2.36331 7.39453H5.63606C5.91491 7.39487 6.18223 7.5058 6.37941 7.70297C6.57658 7.90014 6.6875 8.16747 6.68785 8.44632V22.2995C6.6875 22.5784 6.57658 22.8457 6.37941 23.0429C6.18223 23.24 5.91491 23.3509 5.63606 23.3513ZM2.36331 8.04318C2.25644 8.04335 2.154 8.08588 2.07844 8.16145C2.00287 8.23701 1.96034 8.33945 1.96017 8.44632V22.2995C1.96034 22.4064 2.00287 22.5088 2.07844 22.5844C2.154 22.6599 2.25644 22.7025 2.36331 22.7026H5.63606C5.74293 22.7025 5.84537 22.6599 5.92093 22.5844C5.9965 22.5088 6.03903 22.4064 6.0392 22.2995V8.44469C6.0386 8.33811 5.99588 8.23609 5.92036 8.16087C5.84484 8.08565 5.74265 8.04335 5.63606 8.04318H2.36331Z" fill="black"/>
</svg>